#!OML:ASF F:\VICON\USERDATA\INSTALL\rory3\rory3.ASF
:FULLY-SPECIFIED
:DEGREES
1157
root -2.08222 17.828 -4.95096 5.72437 26.3764 0.417753
lowerback 4.2928 -3.01721 -2.89773
upperback 1.76117 -4.10971 1.84814
thorax -0.249493 -2.07587 3.69404
lowerneck -21.6944 -3.48654 -11.7808
upperneck 30.0098 -0.790376 0.980749
head 14.0121 -1.54155 2.24946
rclavicle 1.2921e-014 5.96354e-015
rhumerus 13.9242 -10.6504 -65.9029
rradius 81.0458
rwrist -60.3607
rhand -14.7694 0.6945
rfingers 7.12502
rthumb 11.3872 -28.9763
lclavicle 1.2921e-014 5.96354e-015
lhumerus 25.6249 -7.72462 79.0283
lradius 70.1478
lwrist 78.6965
lhand -9.70196 33.3803
lfingers 7.12502
lthumb 16.2706 62.7177
rfemur -24.1308 -0.348441 21.4223
rtibia 33.515
rfoot -13.8911 -5.70868
rtoes 12.411
lfemur -2.77763 -2.44505 -15.5235
ltibia 25.1123
lfoot -13.917 11.6159
ltoes -25.1791
1158
root -2.06473 17.829 -4.97868 5.62767 26.0964 0.355319
lowerback 4.25994 -3.00354 -2.89522
upperback 1.75109 -4.09056 1.89823
thorax -0.239613 -2.06669 3.74197
lowerneck -21.8272 -3.45621 -11.7477
upperneck 30.1148 -0.679539 0.81895
head 14.0793 -1.51809 2.19889
rclavicle 1.00883e-014 -1.98785e-014
rhumerus 15.5667 -10.8375 -66.3351
rradius 79.1051
rwrist -61.1103
rhand -15.4426 0.330719
rfingers 7.12502
rthumb 10.7379 -29.3748
lclavicle 1.00883e-014 -1.98785e-014
lhumerus 26.8366 -7.53088 79.1753
lradius 68.3481
lwrist 80.0971
lhand -11.7843 34.0322
lfingers 7.12502
lthumb 14.2649 63.5223
rfemur -24.1415 -0.248836 21.3779
rtibia 33.5019
rfoot -13.7027 -5.52654
rtoes 12.4123
lfemur -2.62134 -2.4831 -15.6215
ltibia 24.9794
lfoot -13.9634 11.8376
ltoes -24.9531
1159
root -2.04674 17.8294 -5.00873 5.57253 25.8928 0.399546
lowerback 4.30392 -3.0109 -2.92098
upperback 1.68138 -4.103 1.88078
thorax -0.334281 -2.07015 3.74415
lowerneck -21.7475 -3.41834 -11.7536
upperneck 30.152 -0.618108 0.774808
head 14.0745 -1.50018 2.19388
rclavicle -3.52843e-014 8.15017e-015
rhumerus 17.0796 -10.9659 -66.7803
rradius 77.3155
rwrist -61.7166
rhand -16.3401 -0.236004
rfingers 7.12502
rthumb 9.87203 -29.9846
lclavicle -3.52843e-014 8.15017e-015
lhumerus 27.9322 -7.29444 79.3262
lradius 66.5601
lwrist 81.0145
lhand -13.0049 34.4906
lfingers 7.12502
lthumb 13.0884 64.0599
rfemur -24.143 -0.177841 21.2286
rtibia 33.4958
rfoot -13.5751 -5.41196
rtoes 12.389
lfemur -2.46333 -2.55859 -15.7972
ltibia 24.8787
lfoot -14.1126 11.8953
ltoes -24.3189
1160
root -2.02974 17.8298 -5.03354 5.55578 25.7294 0.440775
lowerback 4.29465 -3.01233 -2.94358
upperback 1.57833 -4.10673 1.84972
thorax -0.435591 -2.06857 3.7282
lowerneck -21.6769 -3.36071 -11.6981
upperneck 30.2339 -0.544814 0.721357
head 14.0891 -1.47308 2.17764
rclavicle 3.5334e-014 1.27222e-014
rhumerus 18.4487 -11.1291 -67.2564
rradius 75.5868
rwrist -62.1406
rhand -17.3443 -0.848004
rfingers 7.12502
rthumb 8.90308 -30.6402
lclavicle 3.5334e-014 1.27222e-014
lhumerus 28.997 -7.07483 79.5845
lradius 64.8644
lwrist 81.7278
lhand -14.0954 35.1878
lfingers 7.12502
lthumb 12.0372 64.8216
rfemur -24.1692 -0.139709 21.1024
rtibia 33.5038
rfoot -13.4439 -5.39684
rtoes 12.1962
lfemur -2.35367 -2.5762 -15.9297
ltibia 24.7763
lfoot -14.3104 11.842
ltoes -23.6018
1161
root -2.0116 17.8292 -5.05638 5.45819 25.4919 0.39295
lowerback 4.28256 -3.0032 -2.89747
upperback 1.54127 -4.09283 1.84205
thorax -0.472097 -2.0602 3.6947
lowerneck -21.8138 -3.30966 -11.6463
upperneck 30.3946 -0.441775 0.658301
head 14.1812 -1.4393 2.16351
rclavicle -3.11098e-014 1.17283e-014
rhumerus 19.7589 -11.266 -67.7821
rradius 74.0982
rwrist -62.5615
rhand -18.4076 -1.57301
rfingers 7.12502
rthumb 7.87692 -31.4063
lclavicle -3.11098e-014 1.17283e-014
lhumerus 30.03 -6.8016 79.8239
lradius 63.2716
lwrist 82.1752
lhand -14.7431 35.699
lfingers 7.12502
lthumb 11.4126 65.3684
rfemur -24.1597 -0.0370669 21.0596
rtibia 33.5198
rfoot -13.3447 -5.37641
rtoes 11.84
lfemur -2.19628 -2.54945 -16.0141
ltibia 24.6553
lfoot -14.3856 11.9799
ltoes -23.4666
1162
root -1.98986 17.8291 -5.08255 5.49633 25.2021 0.384855
lowerback 4.12936 -2.98817 -2.83605
upperback 1.49982 -4.06772 1.82744
thorax -0.436949 -2.0476 3.63651
lowerneck -21.9516 -3.27159 -11.5768
upperneck 30.5394 -0.337766 0.518143
head 14.2679 -1.41362 2.11479
rclavicle -2.76808e-014 -8.74653e-015
rhumerus 20.9841 -11.1962 -68.0204
rradius 73.0474
rwrist -63.1485
rhand -19.454 -2.34186
rfingers 7.12502
rthumb 6.8669 -32.2105
lclavicle -2.76808e-014 -8.74653e-015
lhumerus 30.955 -6.5079 80.0597
lradius 61.8009
lwrist 82.0568
lhand -14.577 35.6865
lfingers 7.12502
lthumb 11.5727 65.347
rfemur -24.3005 0.0724126 20.9494
rtibia 33.5243
rfoot -13.1879 -5.24416
rtoes 11.7524
lfemur -2.20262 -2.59085 -16.186
ltibia 24.6038
lfoot -14.5081 12.2531
ltoes -23.2796
1163
root -1.97099 17.8279 -5.10636 5.50932 24.9672 0.396448
lowerback 4.04411 -2.98207 -2.85862
upperback 1.44837 -4.05908 1.84103
thorax -0.44046 -2.04277 3.65947
lowerneck -22.0554 -3.21674 -11.5179
upperneck 30.6483 -0.209924 0.374094
head 14.3305 -1.37805 2.07034
rclavicle -1.13307e-014 -1.2921e-014
rhumerus 22.2193 -11.1161 -68.2484
rradius 72.1675
rwrist -63.4891
rhand -20.2097 -2.89046
rfingers 7.12502
rthumb 6.13735 -32.7816
lclavicle -1.13307e-014 -1.2921e-014
lhumerus 31.7616 -6.25827 80.3194
lradius 60.545
lwrist 81.6216
lhand -14.1413 35.4331
lfingers 7.12502
lthumb 11.9929 65.0695
rfemur -24.3862 0.163538 20.8279
rtibia 33.5182
rfoot -13.0374 -5.14754
rtoes 11.6664
lfemur -2.15537 -2.59148 -16.3525
ltibia 24.5233
lfoot -14.6376 12.457
ltoes -23.2548
1164
root -1.93999 17.8211 -5.15061 5.53062 24.3109 0.343819
lowerback 4.12997 -2.84607 -2.6039
upperback 1.3562 -3.87007 1.81264
thorax -0.61835 -1.9426 3.49007
lowerneck -22.2019 -3.16541 -11.4996
upperneck 30.706 -0.0766358 0.256966
head 14.3799 -1.33945 2.04391
rclavicle -5.03919e-014 1.23246e-014
rhumerus 23.3559 -11.1908 -68.8365
rradius 71.3879
rwrist -63.1779
rhand -20.5617 -3.06288
rfingers 7.12502
rthumb 5.79749 -32.9636
lclavicle -5.03919e-014 1.23246e-014
lhumerus 32.4603 -6.00113 80.6186
lradius 59.5791
lwrist 81.147
lhand -13.8843 34.9807
lfingers 7.12502
lthumb 12.2406 64.6025
rfemur -24.6603 0.211134 20.7026
rtibia 33.4983
rfoot -12.5545 -4.68559
rtoes 11.9869
lfemur -2.12755 -2.53777 -16.6394
ltibia 24.4193
lfoot -14.6921 13.0174
ltoes -23.0426
1165
root -1.91989 17.8219 -5.17067 5.50609 24.333 0.383877
lowerback 4.10089 -2.9411 -2.58374
upperback 1.30416 -3.99568 1.80916
thorax -0.647343 -2.00423 3.47983
lowerneck -22.1274 -3.10888 -11.4665
upperneck 30.6178 0.0212902 0.130045
head 14.3191 -1.30821 2.0038
rclavicle 2.66371e-014 9.74045e-015
rhumerus 23.9646 -11.1609 -69.2856
rradius 70.8483
rwrist -62.5579
rhand -20.0467 -2.78674
rfingers 7.12502
rthumb 6.29475 -32.6732
lclavicle 2.66371e-014 9.74045e-015
lhumerus 32.9674 -5.81778 80.7812
lradius 58.9587
lwrist 80.7162
lhand -13.7766 34.6551
lfingers 7.12502
lthumb 12.3445 64.2707
rfemur -24.6373 0.227323 20.5641
rtibia 33.4875
rfoot -12.5618 -4.71782
rtoes 12.2879
lfemur -2.05594 -2.56138 -16.7608
ltibia 24.2715
lfoot -14.6111 13.0233
ltoes -23.4413
1166
root -1.90296 17.8244 -5.18668 5.48315 24.3534 0.34947
lowerback 4.07229 -3.04122 -2.57622
upperback 1.21457 -4.12821 1.85659
thorax -0.710058 -2.06844 3.53074
lowerneck -22.0591 -3.01526 -11.4397
upperneck 30.5845 0.186165 -0.0155709
head 14.2802 -1.25398 1.97008
rclavicle -4.02042e-014 2.18663e-015
rhumerus 23.959 -10.8723 -69.3526
rradius 70.7317
rwrist -62.1873
rhand -19.0927 -2.00028
rfingers 7.12502
rthumb 7.21572 -31.8573
lclavicle -4.02042e-014 2.18663e-015
lhumerus 33.3015 -5.7219 80.8238
lradius 58.6901
lwrist 80.3514
lhand -13.7135 34.529
lfingers 7.12502
lthumb 12.4054 64.1409
rfemur -24.6245 0.348677 20.51
rtibia 33.4743
rfoot -12.6175 -4.83379
rtoes 12.1391
lfemur -1.98861 -2.50923 -16.768
ltibia 24.1073
lfoot -14.5453 12.9351
ltoes -23.8534
1167
root -1.88453 17.8222 -5.20811 5.45403 24.1529 0.318024
lowerback 4.10434 -3.0388 -2.59382
upperback 1.15065 -4.1259 1.9143
thorax -0.788295 -2.0652 3.6044
lowerneck -22.1622 -2.95246 -11.487
upperneck 30.6493 0.336858 -0.07715
head 14.323 -1.20782 1.98079
rclavicle 6.98231e-014 2.78299e-015
rhumerus 25.0228 -10.7028 -69.6031
rradius 70.7827
rwrist -62.3443
rhand -19.2706 -2.14623
rfingers 7.12502
rthumb 7.04397 -32.009
lclavicle 6.98231e-014 2.78299e-015
lhumerus 33.5779 -5.71272 80.893
lradius 58.7727
lwrist 80.0368
lhand -13.4696 34.6801
lfingers 7.12502
lthumb 12.6405 64.2776
rfemur -24.6647 0.528121 20.4336
rtibia 33.4732
rfoot -12.5409 -4.83986
rtoes 11.8261
lfemur -1.82243 -2.43024 -16.8614
ltibia 23.8487
lfoot -14.6352 13.0343
ltoes -23.6282
1168
root -1.86859 17.8205 -5.22913 5.31036 23.9965 0.265766
lowerback 4.22527 -3.01754 -2.62751
upperback 1.13199 -4.10056 1.96388
thorax -0.870917 -2.0508 3.68174
lowerneck -22.2094 -2.92793 -11.4577
upperneck 30.7008 0.410631 -0.189825
head 14.353 -1.19191 1.94364
rclavicle -2.6339e-015 -2.74323e-014
rhumerus 25.4911 -10.5316 -69.6889
rradius 71.2788
rwrist -62.611
rhand -19.2794 -2.07483
rfingers 7.12502
rthumb 7.03543 -31.9379
lclavicle -2.6339e-015 -2.74323e-014
lhumerus 33.7439 -5.86159 80.8557
lradius 59.1986
lwrist 79.852
lhand -13.2064 34.6383
lfingers 7.12502
lthumb 12.8942 64.22
rfemur -24.5841 0.712285 20.3925
rtibia 33.4827
rfoot -12.4732 -4.92856
rtoes 11.4561
lfemur -1.57669 -2.41114 -16.9309
ltibia 23.6058
lfoot -14.7501 13.1423
ltoes -23.1422
